<mxfile host="app.diagrams.net" modified="2023-10-25T03:28:51.263Z" agent="Mozilla/5.0 (X11; Linux x86_64) AppleWebKit/537.36 (KHTML, like Gecko) Chrome/117.0.0.0 Safari/537.36 Edg/117.0.2045.55" etag="MIV3I2vu0uKetbQ70qO0" version="22.0.6" type="github">
  <diagram id="C5RBs43oDa-KdzZeNtuy" name="Page-1">
    <mxGraphModel dx="2411" dy="2081" grid="1" gridSize="10" guides="1" tooltips="1" connect="1" arrows="1" fold="1" page="1" pageScale="1" pageWidth="827" pageHeight="1169" math="0" shadow="0">
      <root>
        <mxCell id="WIyWlLk6GJQsqaUBKTNV-0" />
        <mxCell id="WIyWlLk6GJQsqaUBKTNV-1" parent="WIyWlLk6GJQsqaUBKTNV-0" />
        <mxCell id="FH31mO6eBLQgAafDQbDE-0" value="&lt;font style=&quot;font-size: 24px;&quot;&gt;A&lt;/font&gt;" style="ellipse;whiteSpace=wrap;html=1;" parent="WIyWlLk6GJQsqaUBKTNV-1" vertex="1">
          <mxGeometry x="-240" y="90" width="80" height="60" as="geometry" />
        </mxCell>
        <mxCell id="FH31mO6eBLQgAafDQbDE-1" value="&lt;font style=&quot;font-size: 24px;&quot;&gt;F&lt;/font&gt;" style="ellipse;whiteSpace=wrap;html=1;" parent="WIyWlLk6GJQsqaUBKTNV-1" vertex="1">
          <mxGeometry x="-390" y="690" width="80" height="60" as="geometry" />
        </mxCell>
        <mxCell id="FH31mO6eBLQgAafDQbDE-2" value="&lt;font style=&quot;font-size: 24px;&quot;&gt;H&lt;/font&gt;" style="ellipse;whiteSpace=wrap;html=1;" parent="WIyWlLk6GJQsqaUBKTNV-1" vertex="1">
          <mxGeometry x="-170" y="690" width="80" height="60" as="geometry" />
        </mxCell>
        <mxCell id="FH31mO6eBLQgAafDQbDE-15" value="" style="edgeStyle=none;rounded=0;orthogonalLoop=1;jettySize=auto;html=1;" parent="WIyWlLk6GJQsqaUBKTNV-1" source="FH31mO6eBLQgAafDQbDE-4" target="FH31mO6eBLQgAafDQbDE-2" edge="1">
          <mxGeometry relative="1" as="geometry" />
        </mxCell>
        <mxCell id="FH31mO6eBLQgAafDQbDE-4" value="&lt;font style=&quot;font-size: 24px;&quot;&gt;J&lt;/font&gt;" style="ellipse;whiteSpace=wrap;html=1;" parent="WIyWlLk6GJQsqaUBKTNV-1" vertex="1">
          <mxGeometry x="-170" y="570" width="80" height="60" as="geometry" />
        </mxCell>
        <mxCell id="FH31mO6eBLQgAafDQbDE-19" style="edgeStyle=none;rounded=0;orthogonalLoop=1;jettySize=auto;html=1;exitX=0;exitY=1;exitDx=0;exitDy=0;entryX=1;entryY=0;entryDx=0;entryDy=0;" parent="WIyWlLk6GJQsqaUBKTNV-1" source="FH31mO6eBLQgAafDQbDE-5" target="FH31mO6eBLQgAafDQbDE-1" edge="1">
          <mxGeometry relative="1" as="geometry" />
        </mxCell>
        <mxCell id="FH31mO6eBLQgAafDQbDE-20" style="edgeStyle=none;rounded=0;orthogonalLoop=1;jettySize=auto;html=1;exitX=1;exitY=1;exitDx=0;exitDy=0;entryX=0;entryY=0;entryDx=0;entryDy=0;" parent="WIyWlLk6GJQsqaUBKTNV-1" source="FH31mO6eBLQgAafDQbDE-5" target="FH31mO6eBLQgAafDQbDE-2" edge="1">
          <mxGeometry relative="1" as="geometry" />
        </mxCell>
        <mxCell id="FH31mO6eBLQgAafDQbDE-5" value="&lt;font style=&quot;font-size: 24px;&quot;&gt;E&lt;/font&gt;" style="ellipse;whiteSpace=wrap;html=1;" parent="WIyWlLk6GJQsqaUBKTNV-1" vertex="1">
          <mxGeometry x="-300" y="570" width="80" height="60" as="geometry" />
        </mxCell>
        <mxCell id="FH31mO6eBLQgAafDQbDE-14" value="" style="edgeStyle=none;rounded=0;orthogonalLoop=1;jettySize=auto;html=1;" parent="WIyWlLk6GJQsqaUBKTNV-1" source="FH31mO6eBLQgAafDQbDE-6" target="FH31mO6eBLQgAafDQbDE-4" edge="1">
          <mxGeometry relative="1" as="geometry" />
        </mxCell>
        <mxCell id="FH31mO6eBLQgAafDQbDE-6" value="&lt;font style=&quot;font-size: 24px;&quot;&gt;I&lt;/font&gt;" style="ellipse;whiteSpace=wrap;html=1;" parent="WIyWlLk6GJQsqaUBKTNV-1" vertex="1">
          <mxGeometry x="-170" y="440" width="80" height="60" as="geometry" />
        </mxCell>
        <mxCell id="FH31mO6eBLQgAafDQbDE-17" value="" style="edgeStyle=none;rounded=0;orthogonalLoop=1;jettySize=auto;html=1;" parent="WIyWlLk6GJQsqaUBKTNV-1" source="FH31mO6eBLQgAafDQbDE-7" target="FH31mO6eBLQgAafDQbDE-5" edge="1">
          <mxGeometry relative="1" as="geometry" />
        </mxCell>
        <mxCell id="FH31mO6eBLQgAafDQbDE-7" value="&lt;span style=&quot;font-size: 24px;&quot;&gt;D&lt;/span&gt;" style="ellipse;whiteSpace=wrap;html=1;" parent="WIyWlLk6GJQsqaUBKTNV-1" vertex="1">
          <mxGeometry x="-300" y="440" width="80" height="60" as="geometry" />
        </mxCell>
        <mxCell id="FH31mO6eBLQgAafDQbDE-13" value="" style="edgeStyle=none;rounded=0;orthogonalLoop=1;jettySize=auto;html=1;" parent="WIyWlLk6GJQsqaUBKTNV-1" source="FH31mO6eBLQgAafDQbDE-8" target="FH31mO6eBLQgAafDQbDE-6" edge="1">
          <mxGeometry relative="1" as="geometry" />
        </mxCell>
        <mxCell id="FH31mO6eBLQgAafDQbDE-16" style="edgeStyle=none;rounded=0;orthogonalLoop=1;jettySize=auto;html=1;exitX=0;exitY=1;exitDx=0;exitDy=0;entryX=1;entryY=0;entryDx=0;entryDy=0;" parent="WIyWlLk6GJQsqaUBKTNV-1" source="FH31mO6eBLQgAafDQbDE-8" target="FH31mO6eBLQgAafDQbDE-7" edge="1">
          <mxGeometry relative="1" as="geometry" />
        </mxCell>
        <mxCell id="FH31mO6eBLQgAafDQbDE-8" value="&lt;font style=&quot;font-size: 24px;&quot;&gt;C&lt;/font&gt;" style="ellipse;whiteSpace=wrap;html=1;" parent="WIyWlLk6GJQsqaUBKTNV-1" vertex="1">
          <mxGeometry x="-170" y="330" width="80" height="60" as="geometry" />
        </mxCell>
        <mxCell id="FH31mO6eBLQgAafDQbDE-12" value="" style="edgeStyle=none;rounded=0;orthogonalLoop=1;jettySize=auto;html=1;strokeWidth=1;" parent="WIyWlLk6GJQsqaUBKTNV-1" source="FH31mO6eBLQgAafDQbDE-9" target="FH31mO6eBLQgAafDQbDE-8" edge="1">
          <mxGeometry relative="1" as="geometry" />
        </mxCell>
        <mxCell id="FH31mO6eBLQgAafDQbDE-22" style="edgeStyle=orthogonalEdgeStyle;rounded=0;orthogonalLoop=1;jettySize=auto;html=1;exitX=1;exitY=1;exitDx=0;exitDy=0;entryX=1;entryY=0.5;entryDx=0;entryDy=0;curved=1;" parent="WIyWlLk6GJQsqaUBKTNV-1" source="FH31mO6eBLQgAafDQbDE-9" target="FH31mO6eBLQgAafDQbDE-4" edge="1">
          <mxGeometry relative="1" as="geometry">
            <Array as="points">
              <mxPoint x="-60" y="261" />
              <mxPoint x="-60" y="600" />
            </Array>
          </mxGeometry>
        </mxCell>
        <mxCell id="FH31mO6eBLQgAafDQbDE-9" value="&lt;font style=&quot;font-size: 24px;&quot;&gt;B&lt;/font&gt;" style="ellipse;whiteSpace=wrap;html=1;" parent="WIyWlLk6GJQsqaUBKTNV-1" vertex="1">
          <mxGeometry x="-170" y="210" width="80" height="60" as="geometry" />
        </mxCell>
        <mxCell id="FH31mO6eBLQgAafDQbDE-10" style="rounded=0;orthogonalLoop=1;jettySize=auto;html=1;exitX=1;exitY=1;exitDx=0;exitDy=0;entryX=0.388;entryY=0;entryDx=0;entryDy=0;entryPerimeter=0;strokeWidth=1;" parent="WIyWlLk6GJQsqaUBKTNV-1" source="FH31mO6eBLQgAafDQbDE-0" target="FH31mO6eBLQgAafDQbDE-9" edge="1">
          <mxGeometry relative="1" as="geometry" />
        </mxCell>
        <mxCell id="FH31mO6eBLQgAafDQbDE-21" style="edgeStyle=none;rounded=0;orthogonalLoop=1;jettySize=auto;html=1;exitX=0.5;exitY=0;exitDx=0;exitDy=0;" parent="WIyWlLk6GJQsqaUBKTNV-1" source="FH31mO6eBLQgAafDQbDE-7" edge="1">
          <mxGeometry relative="1" as="geometry">
            <mxPoint x="-210" y="150" as="targetPoint" />
          </mxGeometry>
        </mxCell>
        <mxCell id="XPVyzWUNVq0SXv1FqGJs-2" style="rounded=0;orthogonalLoop=1;jettySize=auto;html=1;exitX=1;exitY=1;exitDx=0;exitDy=0;entryX=0.5;entryY=0;entryDx=0;entryDy=0;" edge="1" parent="WIyWlLk6GJQsqaUBKTNV-1" source="inxREU9D-EE_zdSJ4KNt-0" target="inxREU9D-EE_zdSJ4KNt-2">
          <mxGeometry relative="1" as="geometry" />
        </mxCell>
        <mxCell id="inxREU9D-EE_zdSJ4KNt-0" value="&lt;font style=&quot;font-size: 24px;&quot;&gt;F:1&lt;/font&gt;" style="ellipse;whiteSpace=wrap;html=1;" parent="WIyWlLk6GJQsqaUBKTNV-1" vertex="1">
          <mxGeometry x="173.94" y="90" width="80" height="60" as="geometry" />
        </mxCell>
        <mxCell id="XPVyzWUNVq0SXv1FqGJs-5" value="" style="edgeStyle=none;rounded=0;orthogonalLoop=1;jettySize=auto;html=1;" edge="1" parent="WIyWlLk6GJQsqaUBKTNV-1" source="inxREU9D-EE_zdSJ4KNt-1" target="inxREU9D-EE_zdSJ4KNt-3">
          <mxGeometry relative="1" as="geometry" />
        </mxCell>
        <mxCell id="inxREU9D-EE_zdSJ4KNt-1" value="&lt;font style=&quot;font-size: 24px;&quot;&gt;H:7&lt;/font&gt;" style="ellipse;whiteSpace=wrap;html=1;" parent="WIyWlLk6GJQsqaUBKTNV-1" vertex="1">
          <mxGeometry x="373.94" y="90" width="80" height="60" as="geometry" />
        </mxCell>
        <mxCell id="XPVyzWUNVq0SXv1FqGJs-12" style="edgeStyle=none;rounded=0;orthogonalLoop=1;jettySize=auto;html=1;exitX=0.5;exitY=1;exitDx=0;exitDy=0;entryX=0.5;entryY=0;entryDx=0;entryDy=0;" edge="1" parent="WIyWlLk6GJQsqaUBKTNV-1" source="inxREU9D-EE_zdSJ4KNt-2" target="inxREU9D-EE_zdSJ4KNt-4">
          <mxGeometry relative="1" as="geometry" />
        </mxCell>
        <mxCell id="inxREU9D-EE_zdSJ4KNt-2" value="&lt;font style=&quot;font-size: 24px;&quot;&gt;E:2&lt;/font&gt;" style="ellipse;whiteSpace=wrap;html=1;" parent="WIyWlLk6GJQsqaUBKTNV-1" vertex="1">
          <mxGeometry x="243.94" y="210" width="80" height="60" as="geometry" />
        </mxCell>
        <mxCell id="XPVyzWUNVq0SXv1FqGJs-6" value="" style="edgeStyle=none;rounded=0;orthogonalLoop=1;jettySize=auto;html=1;" edge="1" parent="WIyWlLk6GJQsqaUBKTNV-1" source="inxREU9D-EE_zdSJ4KNt-3" target="inxREU9D-EE_zdSJ4KNt-5">
          <mxGeometry relative="1" as="geometry" />
        </mxCell>
        <mxCell id="inxREU9D-EE_zdSJ4KNt-3" value="&lt;font style=&quot;font-size: 24px;&quot;&gt;J:8&lt;/font&gt;" style="ellipse;whiteSpace=wrap;html=1;" parent="WIyWlLk6GJQsqaUBKTNV-1" vertex="1">
          <mxGeometry x="373.94" y="210" width="80" height="60" as="geometry" />
        </mxCell>
        <mxCell id="XPVyzWUNVq0SXv1FqGJs-13" style="edgeStyle=none;rounded=0;orthogonalLoop=1;jettySize=auto;html=1;exitX=1;exitY=1;exitDx=0;exitDy=0;entryX=0;entryY=0;entryDx=0;entryDy=0;" edge="1" parent="WIyWlLk6GJQsqaUBKTNV-1" source="inxREU9D-EE_zdSJ4KNt-4" target="inxREU9D-EE_zdSJ4KNt-6">
          <mxGeometry relative="1" as="geometry" />
        </mxCell>
        <mxCell id="inxREU9D-EE_zdSJ4KNt-4" value="&lt;span style=&quot;font-size: 24px;&quot;&gt;D:3&lt;/span&gt;" style="ellipse;whiteSpace=wrap;html=1;" parent="WIyWlLk6GJQsqaUBKTNV-1" vertex="1">
          <mxGeometry x="243.94" y="330" width="80" height="60" as="geometry" />
        </mxCell>
        <mxCell id="XPVyzWUNVq0SXv1FqGJs-7" value="" style="edgeStyle=none;rounded=0;orthogonalLoop=1;jettySize=auto;html=1;" edge="1" parent="WIyWlLk6GJQsqaUBKTNV-1" source="inxREU9D-EE_zdSJ4KNt-5" target="inxREU9D-EE_zdSJ4KNt-6">
          <mxGeometry relative="1" as="geometry" />
        </mxCell>
        <mxCell id="inxREU9D-EE_zdSJ4KNt-5" value="&lt;font style=&quot;font-size: 24px;&quot;&gt;I:9&lt;/font&gt;" style="ellipse;whiteSpace=wrap;html=1;" parent="WIyWlLk6GJQsqaUBKTNV-1" vertex="1">
          <mxGeometry x="373.94" y="330" width="80" height="60" as="geometry" />
        </mxCell>
        <mxCell id="XPVyzWUNVq0SXv1FqGJs-8" value="" style="edgeStyle=none;rounded=0;orthogonalLoop=1;jettySize=auto;html=1;" edge="1" parent="WIyWlLk6GJQsqaUBKTNV-1" source="inxREU9D-EE_zdSJ4KNt-6" target="XPVyzWUNVq0SXv1FqGJs-0">
          <mxGeometry relative="1" as="geometry" />
        </mxCell>
        <mxCell id="inxREU9D-EE_zdSJ4KNt-6" value="&lt;font style=&quot;font-size: 24px;&quot;&gt;C:4&lt;/font&gt;" style="ellipse;whiteSpace=wrap;html=1;" parent="WIyWlLk6GJQsqaUBKTNV-1" vertex="1">
          <mxGeometry x="373.94" y="450" width="80" height="60" as="geometry" />
        </mxCell>
        <mxCell id="XPVyzWUNVq0SXv1FqGJs-0" value="&lt;font style=&quot;font-size: 24px;&quot;&gt;B:5&lt;/font&gt;" style="ellipse;whiteSpace=wrap;html=1;" vertex="1" parent="WIyWlLk6GJQsqaUBKTNV-1">
          <mxGeometry x="373.94" y="560" width="80" height="60" as="geometry" />
        </mxCell>
        <mxCell id="XPVyzWUNVq0SXv1FqGJs-1" value="&lt;font style=&quot;font-size: 24px;&quot;&gt;A:6&lt;/font&gt;" style="ellipse;whiteSpace=wrap;html=1;" vertex="1" parent="WIyWlLk6GJQsqaUBKTNV-1">
          <mxGeometry x="303.94" y="690" width="80" height="60" as="geometry" />
        </mxCell>
        <mxCell id="XPVyzWUNVq0SXv1FqGJs-4" style="edgeStyle=none;rounded=0;orthogonalLoop=1;jettySize=auto;html=1;exitX=0;exitY=1;exitDx=0;exitDy=0;entryX=0.732;entryY=0.026;entryDx=0;entryDy=0;entryPerimeter=0;" edge="1" parent="WIyWlLk6GJQsqaUBKTNV-1" source="inxREU9D-EE_zdSJ4KNt-1" target="inxREU9D-EE_zdSJ4KNt-2">
          <mxGeometry relative="1" as="geometry" />
        </mxCell>
        <mxCell id="XPVyzWUNVq0SXv1FqGJs-9" style="edgeStyle=none;rounded=0;orthogonalLoop=1;jettySize=auto;html=1;exitX=0.5;exitY=1;exitDx=0;exitDy=0;entryX=0.75;entryY=0.026;entryDx=0;entryDy=0;entryPerimeter=0;" edge="1" parent="WIyWlLk6GJQsqaUBKTNV-1" source="XPVyzWUNVq0SXv1FqGJs-0" target="XPVyzWUNVq0SXv1FqGJs-1">
          <mxGeometry relative="1" as="geometry" />
        </mxCell>
        <mxCell id="XPVyzWUNVq0SXv1FqGJs-11" style="edgeStyle=none;rounded=0;orthogonalLoop=1;jettySize=auto;html=1;exitX=0.5;exitY=0;exitDx=0;exitDy=0;entryX=0.625;entryY=1.026;entryDx=0;entryDy=0;entryPerimeter=0;" edge="1" parent="WIyWlLk6GJQsqaUBKTNV-1" source="XPVyzWUNVq0SXv1FqGJs-1" target="inxREU9D-EE_zdSJ4KNt-4">
          <mxGeometry relative="1" as="geometry" />
        </mxCell>
        <mxCell id="XPVyzWUNVq0SXv1FqGJs-15" style="edgeStyle=orthogonalEdgeStyle;curved=1;rounded=0;orthogonalLoop=1;jettySize=auto;html=1;exitX=1;exitY=1;exitDx=0;exitDy=0;entryX=1;entryY=0.333;entryDx=0;entryDy=0;entryPerimeter=0;" edge="1" parent="WIyWlLk6GJQsqaUBKTNV-1" source="inxREU9D-EE_zdSJ4KNt-3" target="XPVyzWUNVq0SXv1FqGJs-0">
          <mxGeometry relative="1" as="geometry">
            <Array as="points">
              <mxPoint x="473.94" y="261" />
              <mxPoint x="473.94" y="580" />
            </Array>
          </mxGeometry>
        </mxCell>
        <mxCell id="XPVyzWUNVq0SXv1FqGJs-16" style="rounded=0;orthogonalLoop=1;jettySize=auto;html=1;exitX=1;exitY=1;exitDx=0;exitDy=0;entryX=0.5;entryY=0;entryDx=0;entryDy=0;" edge="1" parent="WIyWlLk6GJQsqaUBKTNV-1" source="XPVyzWUNVq0SXv1FqGJs-17" target="XPVyzWUNVq0SXv1FqGJs-21">
          <mxGeometry relative="1" as="geometry" />
        </mxCell>
        <mxCell id="XPVyzWUNVq0SXv1FqGJs-17" value="&lt;font style=&quot;font-size: 24px;&quot;&gt;F:1&lt;/font&gt;" style="ellipse;whiteSpace=wrap;html=1;" vertex="1" parent="WIyWlLk6GJQsqaUBKTNV-1">
          <mxGeometry x="-350" y="860" width="80" height="60" as="geometry" />
        </mxCell>
        <mxCell id="XPVyzWUNVq0SXv1FqGJs-18" value="" style="edgeStyle=none;rounded=0;orthogonalLoop=1;jettySize=auto;html=1;" edge="1" parent="WIyWlLk6GJQsqaUBKTNV-1" source="XPVyzWUNVq0SXv1FqGJs-19" target="XPVyzWUNVq0SXv1FqGJs-23">
          <mxGeometry relative="1" as="geometry" />
        </mxCell>
        <mxCell id="XPVyzWUNVq0SXv1FqGJs-19" value="&lt;font style=&quot;font-size: 24px;&quot;&gt;H:7&lt;/font&gt;" style="ellipse;whiteSpace=wrap;html=1;" vertex="1" parent="WIyWlLk6GJQsqaUBKTNV-1">
          <mxGeometry x="-150" y="860" width="80" height="60" as="geometry" />
        </mxCell>
        <mxCell id="XPVyzWUNVq0SXv1FqGJs-20" style="edgeStyle=none;rounded=0;orthogonalLoop=1;jettySize=auto;html=1;exitX=0.5;exitY=1;exitDx=0;exitDy=0;entryX=0.5;entryY=0;entryDx=0;entryDy=0;" edge="1" parent="WIyWlLk6GJQsqaUBKTNV-1" source="XPVyzWUNVq0SXv1FqGJs-21" target="XPVyzWUNVq0SXv1FqGJs-25">
          <mxGeometry relative="1" as="geometry" />
        </mxCell>
        <mxCell id="XPVyzWUNVq0SXv1FqGJs-21" value="&lt;font style=&quot;font-size: 24px;&quot;&gt;E:2&lt;/font&gt;" style="ellipse;whiteSpace=wrap;html=1;" vertex="1" parent="WIyWlLk6GJQsqaUBKTNV-1">
          <mxGeometry x="-280" y="980" width="80" height="60" as="geometry" />
        </mxCell>
        <mxCell id="XPVyzWUNVq0SXv1FqGJs-22" value="" style="edgeStyle=none;rounded=0;orthogonalLoop=1;jettySize=auto;html=1;" edge="1" parent="WIyWlLk6GJQsqaUBKTNV-1" source="XPVyzWUNVq0SXv1FqGJs-23" target="XPVyzWUNVq0SXv1FqGJs-27">
          <mxGeometry relative="1" as="geometry" />
        </mxCell>
        <mxCell id="XPVyzWUNVq0SXv1FqGJs-23" value="&lt;font style=&quot;font-size: 24px;&quot;&gt;J:8&lt;/font&gt;" style="ellipse;whiteSpace=wrap;html=1;" vertex="1" parent="WIyWlLk6GJQsqaUBKTNV-1">
          <mxGeometry x="-150" y="980" width="80" height="60" as="geometry" />
        </mxCell>
        <mxCell id="XPVyzWUNVq0SXv1FqGJs-24" style="edgeStyle=none;rounded=0;orthogonalLoop=1;jettySize=auto;html=1;exitX=1;exitY=1;exitDx=0;exitDy=0;entryX=0;entryY=0;entryDx=0;entryDy=0;" edge="1" parent="WIyWlLk6GJQsqaUBKTNV-1" source="XPVyzWUNVq0SXv1FqGJs-25" target="XPVyzWUNVq0SXv1FqGJs-29">
          <mxGeometry relative="1" as="geometry" />
        </mxCell>
        <mxCell id="XPVyzWUNVq0SXv1FqGJs-25" value="&lt;span style=&quot;font-size: 24px;&quot;&gt;D:3&lt;/span&gt;" style="ellipse;whiteSpace=wrap;html=1;" vertex="1" parent="WIyWlLk6GJQsqaUBKTNV-1">
          <mxGeometry x="-280" y="1100" width="80" height="60" as="geometry" />
        </mxCell>
        <mxCell id="XPVyzWUNVq0SXv1FqGJs-26" value="" style="edgeStyle=none;rounded=0;orthogonalLoop=1;jettySize=auto;html=1;" edge="1" parent="WIyWlLk6GJQsqaUBKTNV-1" source="XPVyzWUNVq0SXv1FqGJs-27" target="XPVyzWUNVq0SXv1FqGJs-29">
          <mxGeometry relative="1" as="geometry" />
        </mxCell>
        <mxCell id="XPVyzWUNVq0SXv1FqGJs-27" value="&lt;font style=&quot;font-size: 24px;&quot;&gt;I:9&lt;/font&gt;" style="ellipse;whiteSpace=wrap;html=1;" vertex="1" parent="WIyWlLk6GJQsqaUBKTNV-1">
          <mxGeometry x="-150" y="1100" width="80" height="60" as="geometry" />
        </mxCell>
        <mxCell id="XPVyzWUNVq0SXv1FqGJs-28" value="" style="edgeStyle=none;rounded=0;orthogonalLoop=1;jettySize=auto;html=1;" edge="1" parent="WIyWlLk6GJQsqaUBKTNV-1" source="XPVyzWUNVq0SXv1FqGJs-29" target="XPVyzWUNVq0SXv1FqGJs-30">
          <mxGeometry relative="1" as="geometry" />
        </mxCell>
        <mxCell id="XPVyzWUNVq0SXv1FqGJs-29" value="&lt;font style=&quot;font-size: 24px;&quot;&gt;C:4&lt;/font&gt;" style="ellipse;whiteSpace=wrap;html=1;" vertex="1" parent="WIyWlLk6GJQsqaUBKTNV-1">
          <mxGeometry x="-150" y="1220" width="80" height="60" as="geometry" />
        </mxCell>
        <mxCell id="XPVyzWUNVq0SXv1FqGJs-30" value="&lt;font style=&quot;font-size: 24px;&quot;&gt;B:5&lt;/font&gt;" style="ellipse;whiteSpace=wrap;html=1;" vertex="1" parent="WIyWlLk6GJQsqaUBKTNV-1">
          <mxGeometry x="-150" y="1330" width="80" height="60" as="geometry" />
        </mxCell>
        <mxCell id="XPVyzWUNVq0SXv1FqGJs-31" value="&lt;font style=&quot;font-size: 24px;&quot;&gt;A:6&lt;/font&gt;" style="ellipse;whiteSpace=wrap;html=1;" vertex="1" parent="WIyWlLk6GJQsqaUBKTNV-1">
          <mxGeometry x="-220" y="1460" width="80" height="60" as="geometry" />
        </mxCell>
        <mxCell id="XPVyzWUNVq0SXv1FqGJs-32" style="edgeStyle=none;rounded=0;orthogonalLoop=1;jettySize=auto;html=1;exitX=0;exitY=1;exitDx=0;exitDy=0;entryX=0.732;entryY=0.026;entryDx=0;entryDy=0;entryPerimeter=0;" edge="1" parent="WIyWlLk6GJQsqaUBKTNV-1" source="XPVyzWUNVq0SXv1FqGJs-19" target="XPVyzWUNVq0SXv1FqGJs-21">
          <mxGeometry relative="1" as="geometry" />
        </mxCell>
        <mxCell id="XPVyzWUNVq0SXv1FqGJs-33" style="edgeStyle=none;rounded=0;orthogonalLoop=1;jettySize=auto;html=1;exitX=0.5;exitY=1;exitDx=0;exitDy=0;entryX=0.75;entryY=0.026;entryDx=0;entryDy=0;entryPerimeter=0;" edge="1" parent="WIyWlLk6GJQsqaUBKTNV-1" source="XPVyzWUNVq0SXv1FqGJs-30" target="XPVyzWUNVq0SXv1FqGJs-31">
          <mxGeometry relative="1" as="geometry" />
        </mxCell>
        <mxCell id="XPVyzWUNVq0SXv1FqGJs-34" style="edgeStyle=none;rounded=0;orthogonalLoop=1;jettySize=auto;html=1;exitX=0.5;exitY=0;exitDx=0;exitDy=0;entryX=0.625;entryY=1.026;entryDx=0;entryDy=0;entryPerimeter=0;" edge="1" parent="WIyWlLk6GJQsqaUBKTNV-1" source="XPVyzWUNVq0SXv1FqGJs-31" target="XPVyzWUNVq0SXv1FqGJs-25">
          <mxGeometry relative="1" as="geometry" />
        </mxCell>
        <mxCell id="XPVyzWUNVq0SXv1FqGJs-35" style="edgeStyle=orthogonalEdgeStyle;curved=1;rounded=0;orthogonalLoop=1;jettySize=auto;html=1;exitX=1;exitY=1;exitDx=0;exitDy=0;entryX=1;entryY=0.333;entryDx=0;entryDy=0;entryPerimeter=0;" edge="1" parent="WIyWlLk6GJQsqaUBKTNV-1" source="XPVyzWUNVq0SXv1FqGJs-23" target="XPVyzWUNVq0SXv1FqGJs-30">
          <mxGeometry relative="1" as="geometry">
            <Array as="points">
              <mxPoint x="-50" y="1031" />
              <mxPoint x="-50" y="1350" />
            </Array>
          </mxGeometry>
        </mxCell>
        <mxCell id="XPVyzWUNVq0SXv1FqGJs-36" value="&lt;font style=&quot;font-size: 24px;&quot;&gt;cfg-sdom&lt;/font&gt;" style="rounded=1;whiteSpace=wrap;html=1;strokeColor=none;fillColor=none;" vertex="1" parent="WIyWlLk6GJQsqaUBKTNV-1">
          <mxGeometry x="-510" y="1040" width="120" height="60" as="geometry" />
        </mxCell>
        <mxCell id="XPVyzWUNVq0SXv1FqGJs-37" value="&lt;font style=&quot;font-size: 24px;&quot;&gt;8&lt;/font&gt;" style="rounded=0;whiteSpace=wrap;html=1;fillColor=none;strokeColor=none;" vertex="1" parent="WIyWlLk6GJQsqaUBKTNV-1">
          <mxGeometry x="-90" y="1080" width="30" height="30" as="geometry" />
        </mxCell>
        <mxCell id="XPVyzWUNVq0SXv1FqGJs-38" value="&lt;font style=&quot;font-size: 24px;&quot;&gt;0&lt;/font&gt;" style="rounded=0;whiteSpace=wrap;html=1;fillColor=none;strokeColor=none;" vertex="1" parent="WIyWlLk6GJQsqaUBKTNV-1">
          <mxGeometry x="-80" y="1380" width="30" height="30" as="geometry" />
        </mxCell>
        <mxCell id="XPVyzWUNVq0SXv1FqGJs-39" value="&lt;font style=&quot;font-size: 24px;&quot;&gt;5&lt;/font&gt;" style="rounded=0;whiteSpace=wrap;html=1;fillColor=none;strokeColor=none;" vertex="1" parent="WIyWlLk6GJQsqaUBKTNV-1">
          <mxGeometry x="-140" y="1460" width="30" height="30" as="geometry" />
        </mxCell>
        <mxCell id="XPVyzWUNVq0SXv1FqGJs-40" value="&lt;font style=&quot;font-size: 24px;&quot;&gt;0&lt;/font&gt;" style="rounded=0;whiteSpace=wrap;html=1;fillColor=none;strokeColor=none;" vertex="1" parent="WIyWlLk6GJQsqaUBKTNV-1">
          <mxGeometry x="-200" y="980" width="30" height="30" as="geometry" />
        </mxCell>
        <mxCell id="XPVyzWUNVq0SXv1FqGJs-41" value="&lt;font style=&quot;font-size: 24px;&quot;&gt;7&lt;/font&gt;" style="rounded=0;whiteSpace=wrap;html=1;fillColor=none;strokeColor=none;" vertex="1" parent="WIyWlLk6GJQsqaUBKTNV-1">
          <mxGeometry x="-80" y="965" width="30" height="30" as="geometry" />
        </mxCell>
        <mxCell id="XPVyzWUNVq0SXv1FqGJs-42" value="&lt;font style=&quot;font-size: 24px;&quot;&gt;0&lt;/font&gt;" style="rounded=0;whiteSpace=wrap;html=1;fillColor=none;strokeColor=none;" vertex="1" parent="WIyWlLk6GJQsqaUBKTNV-1">
          <mxGeometry x="-80" y="850" width="30" height="30" as="geometry" />
        </mxCell>
        <mxCell id="XPVyzWUNVq0SXv1FqGJs-43" value="&lt;font style=&quot;font-size: 24px;&quot;&gt;0&lt;/font&gt;" style="rounded=0;whiteSpace=wrap;html=1;fillColor=none;strokeColor=none;" vertex="1" parent="WIyWlLk6GJQsqaUBKTNV-1">
          <mxGeometry x="-90" y="1200" width="30" height="30" as="geometry" />
        </mxCell>
        <mxCell id="XPVyzWUNVq0SXv1FqGJs-44" value="&lt;span style=&quot;font-size: 24px;&quot;&gt;0&lt;/span&gt;" style="rounded=0;whiteSpace=wrap;html=1;fillColor=none;strokeColor=none;" vertex="1" parent="WIyWlLk6GJQsqaUBKTNV-1">
          <mxGeometry x="-270" y="860" width="30" height="30" as="geometry" />
        </mxCell>
        <mxCell id="XPVyzWUNVq0SXv1FqGJs-45" value="&lt;font style=&quot;font-size: 24px;&quot;&gt;0&lt;/font&gt;" style="rounded=0;whiteSpace=wrap;html=1;fillColor=none;strokeColor=none;" vertex="1" parent="WIyWlLk6GJQsqaUBKTNV-1">
          <mxGeometry x="-220" y="1080" width="30" height="30" as="geometry" />
        </mxCell>
        <mxCell id="XPVyzWUNVq0SXv1FqGJs-75" value="&lt;font style=&quot;font-size: 24px;&quot;&gt;cfg-idom&lt;/font&gt;" style="rounded=1;whiteSpace=wrap;html=1;strokeColor=none;fillColor=none;" vertex="1" parent="WIyWlLk6GJQsqaUBKTNV-1">
          <mxGeometry x="130" y="1040" width="120" height="60" as="geometry" />
        </mxCell>
        <mxCell id="XPVyzWUNVq0SXv1FqGJs-76" style="rounded=0;orthogonalLoop=1;jettySize=auto;html=1;exitX=1;exitY=1;exitDx=0;exitDy=0;entryX=0.5;entryY=0;entryDx=0;entryDy=0;" edge="1" parent="WIyWlLk6GJQsqaUBKTNV-1" source="XPVyzWUNVq0SXv1FqGJs-77" target="XPVyzWUNVq0SXv1FqGJs-81">
          <mxGeometry relative="1" as="geometry" />
        </mxCell>
        <mxCell id="XPVyzWUNVq0SXv1FqGJs-77" value="&lt;font style=&quot;font-size: 24px;&quot;&gt;F:1&lt;/font&gt;" style="ellipse;whiteSpace=wrap;html=1;" vertex="1" parent="WIyWlLk6GJQsqaUBKTNV-1">
          <mxGeometry x="264" y="870" width="80" height="60" as="geometry" />
        </mxCell>
        <mxCell id="XPVyzWUNVq0SXv1FqGJs-78" value="" style="edgeStyle=none;rounded=0;orthogonalLoop=1;jettySize=auto;html=1;" edge="1" parent="WIyWlLk6GJQsqaUBKTNV-1" source="XPVyzWUNVq0SXv1FqGJs-79" target="XPVyzWUNVq0SXv1FqGJs-83">
          <mxGeometry relative="1" as="geometry" />
        </mxCell>
        <mxCell id="XPVyzWUNVq0SXv1FqGJs-79" value="&lt;font style=&quot;font-size: 24px;&quot;&gt;H:7&lt;/font&gt;" style="ellipse;whiteSpace=wrap;html=1;" vertex="1" parent="WIyWlLk6GJQsqaUBKTNV-1">
          <mxGeometry x="464" y="870" width="80" height="60" as="geometry" />
        </mxCell>
        <mxCell id="XPVyzWUNVq0SXv1FqGJs-80" style="edgeStyle=none;rounded=0;orthogonalLoop=1;jettySize=auto;html=1;exitX=0.5;exitY=1;exitDx=0;exitDy=0;entryX=0.5;entryY=0;entryDx=0;entryDy=0;" edge="1" parent="WIyWlLk6GJQsqaUBKTNV-1" source="XPVyzWUNVq0SXv1FqGJs-81" target="XPVyzWUNVq0SXv1FqGJs-85">
          <mxGeometry relative="1" as="geometry" />
        </mxCell>
        <mxCell id="XPVyzWUNVq0SXv1FqGJs-81" value="&lt;font style=&quot;font-size: 24px;&quot;&gt;E:2&lt;/font&gt;" style="ellipse;whiteSpace=wrap;html=1;" vertex="1" parent="WIyWlLk6GJQsqaUBKTNV-1">
          <mxGeometry x="334" y="990" width="80" height="60" as="geometry" />
        </mxCell>
        <mxCell id="XPVyzWUNVq0SXv1FqGJs-82" value="" style="edgeStyle=none;rounded=0;orthogonalLoop=1;jettySize=auto;html=1;" edge="1" parent="WIyWlLk6GJQsqaUBKTNV-1" source="XPVyzWUNVq0SXv1FqGJs-83" target="XPVyzWUNVq0SXv1FqGJs-87">
          <mxGeometry relative="1" as="geometry" />
        </mxCell>
        <mxCell id="XPVyzWUNVq0SXv1FqGJs-83" value="&lt;font style=&quot;font-size: 24px;&quot;&gt;J:8&lt;/font&gt;" style="ellipse;whiteSpace=wrap;html=1;" vertex="1" parent="WIyWlLk6GJQsqaUBKTNV-1">
          <mxGeometry x="464" y="990" width="80" height="60" as="geometry" />
        </mxCell>
        <mxCell id="XPVyzWUNVq0SXv1FqGJs-84" style="edgeStyle=none;rounded=0;orthogonalLoop=1;jettySize=auto;html=1;exitX=1;exitY=1;exitDx=0;exitDy=0;entryX=0;entryY=0;entryDx=0;entryDy=0;" edge="1" parent="WIyWlLk6GJQsqaUBKTNV-1" source="XPVyzWUNVq0SXv1FqGJs-85" target="XPVyzWUNVq0SXv1FqGJs-89">
          <mxGeometry relative="1" as="geometry" />
        </mxCell>
        <mxCell id="XPVyzWUNVq0SXv1FqGJs-85" value="&lt;span style=&quot;font-size: 24px;&quot;&gt;D:3&lt;/span&gt;" style="ellipse;whiteSpace=wrap;html=1;" vertex="1" parent="WIyWlLk6GJQsqaUBKTNV-1">
          <mxGeometry x="334" y="1110" width="80" height="60" as="geometry" />
        </mxCell>
        <mxCell id="XPVyzWUNVq0SXv1FqGJs-86" value="" style="edgeStyle=none;rounded=0;orthogonalLoop=1;jettySize=auto;html=1;" edge="1" parent="WIyWlLk6GJQsqaUBKTNV-1" source="XPVyzWUNVq0SXv1FqGJs-87" target="XPVyzWUNVq0SXv1FqGJs-89">
          <mxGeometry relative="1" as="geometry" />
        </mxCell>
        <mxCell id="XPVyzWUNVq0SXv1FqGJs-87" value="&lt;font style=&quot;font-size: 24px;&quot;&gt;I:9&lt;/font&gt;" style="ellipse;whiteSpace=wrap;html=1;" vertex="1" parent="WIyWlLk6GJQsqaUBKTNV-1">
          <mxGeometry x="464" y="1110" width="80" height="60" as="geometry" />
        </mxCell>
        <mxCell id="XPVyzWUNVq0SXv1FqGJs-88" value="" style="edgeStyle=none;rounded=0;orthogonalLoop=1;jettySize=auto;html=1;" edge="1" parent="WIyWlLk6GJQsqaUBKTNV-1" source="XPVyzWUNVq0SXv1FqGJs-89" target="XPVyzWUNVq0SXv1FqGJs-90">
          <mxGeometry relative="1" as="geometry" />
        </mxCell>
        <mxCell id="XPVyzWUNVq0SXv1FqGJs-89" value="&lt;font style=&quot;font-size: 24px;&quot;&gt;C:4&lt;/font&gt;" style="ellipse;whiteSpace=wrap;html=1;" vertex="1" parent="WIyWlLk6GJQsqaUBKTNV-1">
          <mxGeometry x="464" y="1230" width="80" height="60" as="geometry" />
        </mxCell>
        <mxCell id="XPVyzWUNVq0SXv1FqGJs-90" value="&lt;font style=&quot;font-size: 24px;&quot;&gt;B:5&lt;/font&gt;" style="ellipse;whiteSpace=wrap;html=1;" vertex="1" parent="WIyWlLk6GJQsqaUBKTNV-1">
          <mxGeometry x="464" y="1340" width="80" height="60" as="geometry" />
        </mxCell>
        <mxCell id="XPVyzWUNVq0SXv1FqGJs-91" value="&lt;font style=&quot;font-size: 24px;&quot;&gt;A:6&lt;/font&gt;" style="ellipse;whiteSpace=wrap;html=1;" vertex="1" parent="WIyWlLk6GJQsqaUBKTNV-1">
          <mxGeometry x="394" y="1470" width="80" height="60" as="geometry" />
        </mxCell>
        <mxCell id="XPVyzWUNVq0SXv1FqGJs-92" style="edgeStyle=none;rounded=0;orthogonalLoop=1;jettySize=auto;html=1;exitX=0;exitY=1;exitDx=0;exitDy=0;entryX=0.732;entryY=0.026;entryDx=0;entryDy=0;entryPerimeter=0;" edge="1" parent="WIyWlLk6GJQsqaUBKTNV-1" source="XPVyzWUNVq0SXv1FqGJs-79" target="XPVyzWUNVq0SXv1FqGJs-81">
          <mxGeometry relative="1" as="geometry" />
        </mxCell>
        <mxCell id="XPVyzWUNVq0SXv1FqGJs-93" style="edgeStyle=none;rounded=0;orthogonalLoop=1;jettySize=auto;html=1;exitX=0.5;exitY=1;exitDx=0;exitDy=0;entryX=0.75;entryY=0.026;entryDx=0;entryDy=0;entryPerimeter=0;" edge="1" parent="WIyWlLk6GJQsqaUBKTNV-1" source="XPVyzWUNVq0SXv1FqGJs-90" target="XPVyzWUNVq0SXv1FqGJs-91">
          <mxGeometry relative="1" as="geometry" />
        </mxCell>
        <mxCell id="XPVyzWUNVq0SXv1FqGJs-94" style="edgeStyle=none;rounded=0;orthogonalLoop=1;jettySize=auto;html=1;exitX=0.5;exitY=0;exitDx=0;exitDy=0;entryX=0.625;entryY=1.026;entryDx=0;entryDy=0;entryPerimeter=0;" edge="1" parent="WIyWlLk6GJQsqaUBKTNV-1" source="XPVyzWUNVq0SXv1FqGJs-91" target="XPVyzWUNVq0SXv1FqGJs-85">
          <mxGeometry relative="1" as="geometry" />
        </mxCell>
        <mxCell id="XPVyzWUNVq0SXv1FqGJs-95" style="edgeStyle=orthogonalEdgeStyle;curved=1;rounded=0;orthogonalLoop=1;jettySize=auto;html=1;exitX=1;exitY=1;exitDx=0;exitDy=0;entryX=1;entryY=0.333;entryDx=0;entryDy=0;entryPerimeter=0;" edge="1" parent="WIyWlLk6GJQsqaUBKTNV-1" source="XPVyzWUNVq0SXv1FqGJs-83" target="XPVyzWUNVq0SXv1FqGJs-90">
          <mxGeometry relative="1" as="geometry">
            <Array as="points">
              <mxPoint x="564" y="1041" />
              <mxPoint x="564" y="1360" />
            </Array>
          </mxGeometry>
        </mxCell>
        <mxCell id="XPVyzWUNVq0SXv1FqGJs-96" value="&lt;font style=&quot;font-size: 24px;&quot;&gt;8&lt;/font&gt;" style="rounded=0;whiteSpace=wrap;html=1;fillColor=none;strokeColor=none;" vertex="1" parent="WIyWlLk6GJQsqaUBKTNV-1">
          <mxGeometry x="524" y="1090" width="30" height="30" as="geometry" />
        </mxCell>
        <mxCell id="XPVyzWUNVq0SXv1FqGJs-97" value="&lt;font style=&quot;font-size: 24px;&quot;&gt;0&lt;/font&gt;" style="rounded=0;whiteSpace=wrap;html=1;fillColor=none;strokeColor=none;" vertex="1" parent="WIyWlLk6GJQsqaUBKTNV-1">
          <mxGeometry x="534" y="1390" width="30" height="30" as="geometry" />
        </mxCell>
        <mxCell id="XPVyzWUNVq0SXv1FqGJs-98" value="&lt;font style=&quot;font-size: 24px;&quot;&gt;5&lt;/font&gt;" style="rounded=0;whiteSpace=wrap;html=1;fillColor=none;strokeColor=none;" vertex="1" parent="WIyWlLk6GJQsqaUBKTNV-1">
          <mxGeometry x="474" y="1470" width="30" height="30" as="geometry" />
        </mxCell>
        <mxCell id="XPVyzWUNVq0SXv1FqGJs-99" value="&lt;font style=&quot;font-size: 24px;&quot;&gt;0&lt;/font&gt;" style="rounded=0;whiteSpace=wrap;html=1;fillColor=none;strokeColor=none;" vertex="1" parent="WIyWlLk6GJQsqaUBKTNV-1">
          <mxGeometry x="414" y="990" width="30" height="30" as="geometry" />
        </mxCell>
        <mxCell id="XPVyzWUNVq0SXv1FqGJs-100" value="&lt;font style=&quot;font-size: 24px;&quot;&gt;7&lt;/font&gt;" style="rounded=0;whiteSpace=wrap;html=1;fillColor=none;strokeColor=none;" vertex="1" parent="WIyWlLk6GJQsqaUBKTNV-1">
          <mxGeometry x="534" y="975" width="30" height="30" as="geometry" />
        </mxCell>
        <mxCell id="XPVyzWUNVq0SXv1FqGJs-101" value="&lt;font style=&quot;font-size: 24px;&quot;&gt;0&lt;/font&gt;" style="rounded=0;whiteSpace=wrap;html=1;fillColor=none;strokeColor=none;" vertex="1" parent="WIyWlLk6GJQsqaUBKTNV-1">
          <mxGeometry x="534" y="860" width="30" height="30" as="geometry" />
        </mxCell>
        <mxCell id="XPVyzWUNVq0SXv1FqGJs-102" value="&lt;font style=&quot;font-size: 24px;&quot;&gt;0&lt;/font&gt;" style="rounded=0;whiteSpace=wrap;html=1;fillColor=none;strokeColor=none;" vertex="1" parent="WIyWlLk6GJQsqaUBKTNV-1">
          <mxGeometry x="524" y="1210" width="30" height="30" as="geometry" />
        </mxCell>
        <mxCell id="XPVyzWUNVq0SXv1FqGJs-103" value="&lt;font style=&quot;font-size: 24px;&quot;&gt;0&lt;/font&gt;" style="rounded=0;whiteSpace=wrap;html=1;fillColor=none;strokeColor=none;" vertex="1" parent="WIyWlLk6GJQsqaUBKTNV-1">
          <mxGeometry x="344" y="870" width="30" height="30" as="geometry" />
        </mxCell>
        <mxCell id="XPVyzWUNVq0SXv1FqGJs-104" value="&lt;font style=&quot;font-size: 24px;&quot;&gt;0&lt;/font&gt;" style="rounded=0;whiteSpace=wrap;html=1;fillColor=none;strokeColor=none;" vertex="1" parent="WIyWlLk6GJQsqaUBKTNV-1">
          <mxGeometry x="394" y="1090" width="30" height="30" as="geometry" />
        </mxCell>
        <mxCell id="XPVyzWUNVq0SXv1FqGJs-107" style="edgeStyle=none;rounded=0;orthogonalLoop=1;jettySize=auto;html=1;exitX=0;exitY=1;exitDx=0;exitDy=0;" edge="1" parent="WIyWlLk6GJQsqaUBKTNV-1" source="XPVyzWUNVq0SXv1FqGJs-105" target="inxREU9D-EE_zdSJ4KNt-0">
          <mxGeometry relative="1" as="geometry" />
        </mxCell>
        <mxCell id="XPVyzWUNVq0SXv1FqGJs-105" value="&lt;font style=&quot;font-size: 24px;&quot;&gt;R:0&lt;/font&gt;" style="ellipse;whiteSpace=wrap;html=1;" vertex="1" parent="WIyWlLk6GJQsqaUBKTNV-1">
          <mxGeometry x="273.94" y="-10" width="80" height="60" as="geometry" />
        </mxCell>
        <mxCell id="XPVyzWUNVq0SXv1FqGJs-108" style="edgeStyle=none;rounded=0;orthogonalLoop=1;jettySize=auto;html=1;exitX=1;exitY=1;exitDx=0;exitDy=0;entryX=0.288;entryY=-0.033;entryDx=0;entryDy=0;entryPerimeter=0;" edge="1" parent="WIyWlLk6GJQsqaUBKTNV-1" source="XPVyzWUNVq0SXv1FqGJs-105" target="inxREU9D-EE_zdSJ4KNt-1">
          <mxGeometry relative="1" as="geometry" />
        </mxCell>
        <mxCell id="XPVyzWUNVq0SXv1FqGJs-111" style="edgeStyle=none;rounded=0;orthogonalLoop=1;jettySize=auto;html=1;exitX=0;exitY=1;exitDx=0;exitDy=0;" edge="1" parent="WIyWlLk6GJQsqaUBKTNV-1" source="XPVyzWUNVq0SXv1FqGJs-110" target="XPVyzWUNVq0SXv1FqGJs-17">
          <mxGeometry relative="1" as="geometry" />
        </mxCell>
        <mxCell id="XPVyzWUNVq0SXv1FqGJs-110" value="&lt;font style=&quot;font-size: 24px;&quot;&gt;R:0&lt;/font&gt;" style="ellipse;whiteSpace=wrap;html=1;" vertex="1" parent="WIyWlLk6GJQsqaUBKTNV-1">
          <mxGeometry x="-245" y="760" width="80" height="60" as="geometry" />
        </mxCell>
        <mxCell id="XPVyzWUNVq0SXv1FqGJs-112" style="edgeStyle=none;rounded=0;orthogonalLoop=1;jettySize=auto;html=1;exitX=1;exitY=1;exitDx=0;exitDy=0;entryX=0.305;entryY=0.01;entryDx=0;entryDy=0;entryPerimeter=0;" edge="1" parent="WIyWlLk6GJQsqaUBKTNV-1" source="XPVyzWUNVq0SXv1FqGJs-110" target="XPVyzWUNVq0SXv1FqGJs-19">
          <mxGeometry relative="1" as="geometry" />
        </mxCell>
        <mxCell id="XPVyzWUNVq0SXv1FqGJs-114" style="edgeStyle=none;rounded=0;orthogonalLoop=1;jettySize=auto;html=1;exitX=0;exitY=1;exitDx=0;exitDy=0;" edge="1" parent="WIyWlLk6GJQsqaUBKTNV-1" source="XPVyzWUNVq0SXv1FqGJs-113" target="XPVyzWUNVq0SXv1FqGJs-77">
          <mxGeometry relative="1" as="geometry" />
        </mxCell>
        <mxCell id="XPVyzWUNVq0SXv1FqGJs-113" value="&lt;font style=&quot;font-size: 24px;&quot;&gt;R:0&lt;/font&gt;" style="ellipse;whiteSpace=wrap;html=1;" vertex="1" parent="WIyWlLk6GJQsqaUBKTNV-1">
          <mxGeometry x="364" y="770" width="80" height="60" as="geometry" />
        </mxCell>
        <mxCell id="XPVyzWUNVq0SXv1FqGJs-115" style="edgeStyle=none;rounded=0;orthogonalLoop=1;jettySize=auto;html=1;exitX=1;exitY=1;exitDx=0;exitDy=0;entryX=0.415;entryY=-0.026;entryDx=0;entryDy=0;entryPerimeter=0;" edge="1" parent="WIyWlLk6GJQsqaUBKTNV-1" source="XPVyzWUNVq0SXv1FqGJs-113" target="XPVyzWUNVq0SXv1FqGJs-79">
          <mxGeometry relative="1" as="geometry" />
        </mxCell>
        <mxCell id="XPVyzWUNVq0SXv1FqGJs-155" style="edgeStyle=none;rounded=0;orthogonalLoop=1;jettySize=auto;html=1;exitX=0;exitY=1;exitDx=0;exitDy=0;entryX=0.5;entryY=0;entryDx=0;entryDy=0;" edge="1" parent="WIyWlLk6GJQsqaUBKTNV-1" source="XPVyzWUNVq0SXv1FqGJs-145" target="XPVyzWUNVq0SXv1FqGJs-146">
          <mxGeometry relative="1" as="geometry" />
        </mxCell>
        <mxCell id="XPVyzWUNVq0SXv1FqGJs-161" style="edgeStyle=none;rounded=0;orthogonalLoop=1;jettySize=auto;html=1;exitX=1;exitY=1;exitDx=0;exitDy=0;entryX=0.5;entryY=0;entryDx=0;entryDy=0;" edge="1" parent="WIyWlLk6GJQsqaUBKTNV-1" source="XPVyzWUNVq0SXv1FqGJs-145" target="XPVyzWUNVq0SXv1FqGJs-152">
          <mxGeometry relative="1" as="geometry" />
        </mxCell>
        <mxCell id="XPVyzWUNVq0SXv1FqGJs-145" value="&lt;font style=&quot;font-size: 24px;&quot;&gt;R:0&lt;/font&gt;" style="ellipse;whiteSpace=wrap;html=1;" vertex="1" parent="WIyWlLk6GJQsqaUBKTNV-1">
          <mxGeometry x="890" width="80" height="60" as="geometry" />
        </mxCell>
        <mxCell id="XPVyzWUNVq0SXv1FqGJs-156" style="edgeStyle=none;rounded=0;orthogonalLoop=1;jettySize=auto;html=1;exitX=0.5;exitY=1;exitDx=0;exitDy=0;entryX=0.5;entryY=0;entryDx=0;entryDy=0;" edge="1" parent="WIyWlLk6GJQsqaUBKTNV-1" source="XPVyzWUNVq0SXv1FqGJs-146" target="XPVyzWUNVq0SXv1FqGJs-147">
          <mxGeometry relative="1" as="geometry" />
        </mxCell>
        <mxCell id="XPVyzWUNVq0SXv1FqGJs-146" value="&lt;font style=&quot;font-size: 24px;&quot;&gt;F:1&lt;/font&gt;" style="ellipse;whiteSpace=wrap;html=1;" vertex="1" parent="WIyWlLk6GJQsqaUBKTNV-1">
          <mxGeometry x="820" y="110" width="80" height="60" as="geometry" />
        </mxCell>
        <mxCell id="XPVyzWUNVq0SXv1FqGJs-157" style="edgeStyle=none;rounded=0;orthogonalLoop=1;jettySize=auto;html=1;exitX=0.5;exitY=1;exitDx=0;exitDy=0;entryX=0.5;entryY=0;entryDx=0;entryDy=0;" edge="1" parent="WIyWlLk6GJQsqaUBKTNV-1" source="XPVyzWUNVq0SXv1FqGJs-147" target="XPVyzWUNVq0SXv1FqGJs-148">
          <mxGeometry relative="1" as="geometry" />
        </mxCell>
        <mxCell id="XPVyzWUNVq0SXv1FqGJs-147" value="&lt;font style=&quot;font-size: 24px;&quot;&gt;E:2&lt;/font&gt;" style="ellipse;whiteSpace=wrap;html=1;" vertex="1" parent="WIyWlLk6GJQsqaUBKTNV-1">
          <mxGeometry x="820" y="230" width="80" height="60" as="geometry" />
        </mxCell>
        <mxCell id="XPVyzWUNVq0SXv1FqGJs-158" style="edgeStyle=none;rounded=0;orthogonalLoop=1;jettySize=auto;html=1;exitX=0.5;exitY=1;exitDx=0;exitDy=0;entryX=0.5;entryY=0;entryDx=0;entryDy=0;" edge="1" parent="WIyWlLk6GJQsqaUBKTNV-1" source="XPVyzWUNVq0SXv1FqGJs-148" target="XPVyzWUNVq0SXv1FqGJs-149">
          <mxGeometry relative="1" as="geometry" />
        </mxCell>
        <mxCell id="XPVyzWUNVq0SXv1FqGJs-148" value="&lt;span style=&quot;font-size: 24px;&quot;&gt;D:3&lt;/span&gt;" style="ellipse;whiteSpace=wrap;html=1;" vertex="1" parent="WIyWlLk6GJQsqaUBKTNV-1">
          <mxGeometry x="820" y="350" width="80" height="60" as="geometry" />
        </mxCell>
        <mxCell id="XPVyzWUNVq0SXv1FqGJs-159" style="edgeStyle=none;rounded=0;orthogonalLoop=1;jettySize=auto;html=1;exitX=0.5;exitY=1;exitDx=0;exitDy=0;entryX=0.5;entryY=0;entryDx=0;entryDy=0;" edge="1" parent="WIyWlLk6GJQsqaUBKTNV-1" source="XPVyzWUNVq0SXv1FqGJs-149" target="XPVyzWUNVq0SXv1FqGJs-150">
          <mxGeometry relative="1" as="geometry" />
        </mxCell>
        <mxCell id="XPVyzWUNVq0SXv1FqGJs-149" value="&lt;font style=&quot;font-size: 24px;&quot;&gt;C:4&lt;/font&gt;" style="ellipse;whiteSpace=wrap;html=1;" vertex="1" parent="WIyWlLk6GJQsqaUBKTNV-1">
          <mxGeometry x="820" y="460" width="80" height="60" as="geometry" />
        </mxCell>
        <mxCell id="XPVyzWUNVq0SXv1FqGJs-160" style="edgeStyle=none;rounded=0;orthogonalLoop=1;jettySize=auto;html=1;exitX=0.5;exitY=1;exitDx=0;exitDy=0;entryX=0.5;entryY=0;entryDx=0;entryDy=0;" edge="1" parent="WIyWlLk6GJQsqaUBKTNV-1" source="XPVyzWUNVq0SXv1FqGJs-150" target="XPVyzWUNVq0SXv1FqGJs-151">
          <mxGeometry relative="1" as="geometry" />
        </mxCell>
        <mxCell id="XPVyzWUNVq0SXv1FqGJs-150" value="&lt;font style=&quot;font-size: 24px;&quot;&gt;B:5&lt;/font&gt;" style="ellipse;whiteSpace=wrap;html=1;" vertex="1" parent="WIyWlLk6GJQsqaUBKTNV-1">
          <mxGeometry x="820" y="560" width="80" height="60" as="geometry" />
        </mxCell>
        <mxCell id="XPVyzWUNVq0SXv1FqGJs-151" value="&lt;font style=&quot;font-size: 24px;&quot;&gt;A:6&lt;/font&gt;" style="ellipse;whiteSpace=wrap;html=1;" vertex="1" parent="WIyWlLk6GJQsqaUBKTNV-1">
          <mxGeometry x="820" y="670" width="80" height="60" as="geometry" />
        </mxCell>
        <mxCell id="XPVyzWUNVq0SXv1FqGJs-162" style="edgeStyle=none;rounded=0;orthogonalLoop=1;jettySize=auto;html=1;exitX=0.5;exitY=1;exitDx=0;exitDy=0;entryX=0.5;entryY=0;entryDx=0;entryDy=0;" edge="1" parent="WIyWlLk6GJQsqaUBKTNV-1" source="XPVyzWUNVq0SXv1FqGJs-152" target="XPVyzWUNVq0SXv1FqGJs-153">
          <mxGeometry relative="1" as="geometry" />
        </mxCell>
        <mxCell id="XPVyzWUNVq0SXv1FqGJs-152" value="&lt;font style=&quot;font-size: 24px;&quot;&gt;H:7&lt;/font&gt;" style="ellipse;whiteSpace=wrap;html=1;" vertex="1" parent="WIyWlLk6GJQsqaUBKTNV-1">
          <mxGeometry x="950" y="110" width="80" height="60" as="geometry" />
        </mxCell>
        <mxCell id="XPVyzWUNVq0SXv1FqGJs-163" style="edgeStyle=none;rounded=0;orthogonalLoop=1;jettySize=auto;html=1;exitX=0.5;exitY=1;exitDx=0;exitDy=0;entryX=0.5;entryY=0;entryDx=0;entryDy=0;" edge="1" parent="WIyWlLk6GJQsqaUBKTNV-1" source="XPVyzWUNVq0SXv1FqGJs-153" target="XPVyzWUNVq0SXv1FqGJs-154">
          <mxGeometry relative="1" as="geometry" />
        </mxCell>
        <mxCell id="XPVyzWUNVq0SXv1FqGJs-153" value="&lt;font style=&quot;font-size: 24px;&quot;&gt;J:8&lt;/font&gt;" style="ellipse;whiteSpace=wrap;html=1;" vertex="1" parent="WIyWlLk6GJQsqaUBKTNV-1">
          <mxGeometry x="950" y="230" width="80" height="60" as="geometry" />
        </mxCell>
        <mxCell id="XPVyzWUNVq0SXv1FqGJs-154" value="&lt;font style=&quot;font-size: 24px;&quot;&gt;I:9&lt;/font&gt;" style="ellipse;whiteSpace=wrap;html=1;" vertex="1" parent="WIyWlLk6GJQsqaUBKTNV-1">
          <mxGeometry x="950" y="350" width="80" height="60" as="geometry" />
        </mxCell>
        <mxCell id="XPVyzWUNVq0SXv1FqGJs-164" value="&lt;font style=&quot;font-size: 24px;&quot;&gt;cfg-original&lt;/font&gt;" style="rounded=1;whiteSpace=wrap;html=1;fillColor=none;strokeColor=none;" vertex="1" parent="WIyWlLk6GJQsqaUBKTNV-1">
          <mxGeometry x="-440" y="280" width="120" height="60" as="geometry" />
        </mxCell>
        <mxCell id="XPVyzWUNVq0SXv1FqGJs-165" value="&lt;font style=&quot;font-size: 24px;&quot;&gt;cfg-reverse-dfs&lt;/font&gt;" style="rounded=1;whiteSpace=wrap;html=1;fillColor=none;strokeColor=none;" vertex="1" parent="WIyWlLk6GJQsqaUBKTNV-1">
          <mxGeometry x="63.94" y="300" width="170" height="60" as="geometry" />
        </mxCell>
        <mxCell id="XPVyzWUNVq0SXv1FqGJs-166" value="&lt;font style=&quot;font-size: 24px;&quot;&gt;cfg-spainning-tree&lt;/font&gt;" style="rounded=1;whiteSpace=wrap;html=1;fillColor=none;strokeColor=none;" vertex="1" parent="WIyWlLk6GJQsqaUBKTNV-1">
          <mxGeometry x="630" y="200" width="170" height="60" as="geometry" />
        </mxCell>
        <mxCell id="XPVyzWUNVq0SXv1FqGJs-191" value="&lt;font style=&quot;font-size: 24px;&quot;&gt;cfg-idom-tree&lt;/font&gt;" style="rounded=1;whiteSpace=wrap;html=1;strokeColor=none;fillColor=none;" vertex="1" parent="WIyWlLk6GJQsqaUBKTNV-1">
          <mxGeometry x="-560" y="1630" width="180" height="60" as="geometry" />
        </mxCell>
        <mxCell id="XPVyzWUNVq0SXv1FqGJs-193" value="&lt;font style=&quot;font-size: 24px;&quot;&gt;F:1&lt;/font&gt;" style="ellipse;whiteSpace=wrap;html=1;" vertex="1" parent="WIyWlLk6GJQsqaUBKTNV-1">
          <mxGeometry x="-380" y="1920" width="80" height="60" as="geometry" />
        </mxCell>
        <mxCell id="XPVyzWUNVq0SXv1FqGJs-226" value="" style="edgeStyle=none;rounded=0;orthogonalLoop=1;jettySize=auto;html=1;" edge="1" parent="WIyWlLk6GJQsqaUBKTNV-1" source="XPVyzWUNVq0SXv1FqGJs-195" target="XPVyzWUNVq0SXv1FqGJs-199">
          <mxGeometry relative="1" as="geometry" />
        </mxCell>
        <mxCell id="XPVyzWUNVq0SXv1FqGJs-195" value="&lt;font style=&quot;font-size: 24px;&quot;&gt;H:7&lt;/font&gt;" style="ellipse;whiteSpace=wrap;html=1;" vertex="1" parent="WIyWlLk6GJQsqaUBKTNV-1">
          <mxGeometry x="173.94" y="1920" width="80" height="60" as="geometry" />
        </mxCell>
        <mxCell id="XPVyzWUNVq0SXv1FqGJs-197" value="&lt;font style=&quot;font-size: 24px;&quot;&gt;E:2&lt;/font&gt;" style="ellipse;whiteSpace=wrap;html=1;" vertex="1" parent="WIyWlLk6GJQsqaUBKTNV-1">
          <mxGeometry x="-270" y="1920" width="80" height="60" as="geometry" />
        </mxCell>
        <mxCell id="XPVyzWUNVq0SXv1FqGJs-227" value="" style="edgeStyle=none;rounded=0;orthogonalLoop=1;jettySize=auto;html=1;" edge="1" parent="WIyWlLk6GJQsqaUBKTNV-1" source="XPVyzWUNVq0SXv1FqGJs-199" target="XPVyzWUNVq0SXv1FqGJs-203">
          <mxGeometry relative="1" as="geometry" />
        </mxCell>
        <mxCell id="XPVyzWUNVq0SXv1FqGJs-199" value="&lt;font style=&quot;font-size: 24px;&quot;&gt;J:8&lt;/font&gt;" style="ellipse;whiteSpace=wrap;html=1;" vertex="1" parent="WIyWlLk6GJQsqaUBKTNV-1">
          <mxGeometry x="173.94" y="2020" width="80" height="60" as="geometry" />
        </mxCell>
        <mxCell id="XPVyzWUNVq0SXv1FqGJs-201" value="&lt;span style=&quot;font-size: 24px;&quot;&gt;D:3&lt;/span&gt;" style="ellipse;whiteSpace=wrap;html=1;" vertex="1" parent="WIyWlLk6GJQsqaUBKTNV-1">
          <mxGeometry x="-165" y="1920" width="80" height="60" as="geometry" />
        </mxCell>
        <mxCell id="XPVyzWUNVq0SXv1FqGJs-203" value="&lt;font style=&quot;font-size: 24px;&quot;&gt;I:9&lt;/font&gt;" style="ellipse;whiteSpace=wrap;html=1;" vertex="1" parent="WIyWlLk6GJQsqaUBKTNV-1">
          <mxGeometry x="173.94" y="2120" width="80" height="60" as="geometry" />
        </mxCell>
        <mxCell id="XPVyzWUNVq0SXv1FqGJs-205" value="&lt;font style=&quot;font-size: 24px;&quot;&gt;C:4&lt;/font&gt;" style="ellipse;whiteSpace=wrap;html=1;" vertex="1" parent="WIyWlLk6GJQsqaUBKTNV-1">
          <mxGeometry x="-60" y="1920" width="80" height="60" as="geometry" />
        </mxCell>
        <mxCell id="XPVyzWUNVq0SXv1FqGJs-228" value="" style="edgeStyle=none;rounded=0;orthogonalLoop=1;jettySize=auto;html=1;" edge="1" parent="WIyWlLk6GJQsqaUBKTNV-1" source="XPVyzWUNVq0SXv1FqGJs-206" target="XPVyzWUNVq0SXv1FqGJs-207">
          <mxGeometry relative="1" as="geometry" />
        </mxCell>
        <mxCell id="XPVyzWUNVq0SXv1FqGJs-206" value="&lt;font style=&quot;font-size: 24px;&quot;&gt;B:5&lt;/font&gt;" style="ellipse;whiteSpace=wrap;html=1;" vertex="1" parent="WIyWlLk6GJQsqaUBKTNV-1">
          <mxGeometry x="50" y="1920" width="80" height="60" as="geometry" />
        </mxCell>
        <mxCell id="XPVyzWUNVq0SXv1FqGJs-207" value="&lt;font style=&quot;font-size: 24px;&quot;&gt;A:6&lt;/font&gt;" style="ellipse;whiteSpace=wrap;html=1;" vertex="1" parent="WIyWlLk6GJQsqaUBKTNV-1">
          <mxGeometry x="50" y="2020" width="80" height="60" as="geometry" />
        </mxCell>
        <mxCell id="XPVyzWUNVq0SXv1FqGJs-230" style="edgeStyle=none;rounded=0;orthogonalLoop=1;jettySize=auto;html=1;exitX=0.5;exitY=1;exitDx=0;exitDy=0;entryX=1;entryY=0;entryDx=0;entryDy=0;dashed=1;" edge="1" parent="WIyWlLk6GJQsqaUBKTNV-1" source="XPVyzWUNVq0SXv1FqGJs-225" target="XPVyzWUNVq0SXv1FqGJs-197">
          <mxGeometry relative="1" as="geometry" />
        </mxCell>
        <mxCell id="XPVyzWUNVq0SXv1FqGJs-232" style="edgeStyle=none;rounded=0;orthogonalLoop=1;jettySize=auto;html=1;exitX=0.5;exitY=1;exitDx=0;exitDy=0;entryX=0.5;entryY=0;entryDx=0;entryDy=0;dashed=1;" edge="1" parent="WIyWlLk6GJQsqaUBKTNV-1" source="XPVyzWUNVq0SXv1FqGJs-225" target="XPVyzWUNVq0SXv1FqGJs-205">
          <mxGeometry relative="1" as="geometry" />
        </mxCell>
        <mxCell id="XPVyzWUNVq0SXv1FqGJs-233" style="edgeStyle=none;rounded=0;orthogonalLoop=1;jettySize=auto;html=1;exitX=0.5;exitY=1;exitDx=0;exitDy=0;entryX=0.5;entryY=0;entryDx=0;entryDy=0;dashed=1;" edge="1" parent="WIyWlLk6GJQsqaUBKTNV-1" source="XPVyzWUNVq0SXv1FqGJs-225" target="XPVyzWUNVq0SXv1FqGJs-206">
          <mxGeometry relative="1" as="geometry" />
        </mxCell>
        <mxCell id="XPVyzWUNVq0SXv1FqGJs-234" style="edgeStyle=none;rounded=0;orthogonalLoop=1;jettySize=auto;html=1;exitX=0.5;exitY=1;exitDx=0;exitDy=0;entryX=0.5;entryY=0;entryDx=0;entryDy=0;dashed=1;" edge="1" parent="WIyWlLk6GJQsqaUBKTNV-1" source="XPVyzWUNVq0SXv1FqGJs-225" target="XPVyzWUNVq0SXv1FqGJs-195">
          <mxGeometry relative="1" as="geometry" />
        </mxCell>
        <mxCell id="XPVyzWUNVq0SXv1FqGJs-235" style="edgeStyle=none;rounded=0;orthogonalLoop=1;jettySize=auto;html=1;exitX=0.5;exitY=1;exitDx=0;exitDy=0;entryX=1;entryY=0;entryDx=0;entryDy=0;dashed=1;" edge="1" parent="WIyWlLk6GJQsqaUBKTNV-1" source="XPVyzWUNVq0SXv1FqGJs-225" target="XPVyzWUNVq0SXv1FqGJs-193">
          <mxGeometry relative="1" as="geometry" />
        </mxCell>
        <mxCell id="XPVyzWUNVq0SXv1FqGJs-225" value="&lt;font style=&quot;font-size: 24px;&quot;&gt;R:0&lt;/font&gt;" style="ellipse;whiteSpace=wrap;html=1;dashed=1;" vertex="1" parent="WIyWlLk6GJQsqaUBKTNV-1">
          <mxGeometry x="-110" y="1775" width="80" height="60" as="geometry" />
        </mxCell>
        <mxCell id="XPVyzWUNVq0SXv1FqGJs-231" style="edgeStyle=none;rounded=0;orthogonalLoop=1;jettySize=auto;html=1;exitX=0.5;exitY=1;exitDx=0;exitDy=0;entryX=0.793;entryY=0.023;entryDx=0;entryDy=0;entryPerimeter=0;dashed=1;" edge="1" parent="WIyWlLk6GJQsqaUBKTNV-1" source="XPVyzWUNVq0SXv1FqGJs-225" target="XPVyzWUNVq0SXv1FqGJs-201">
          <mxGeometry relative="1" as="geometry" />
        </mxCell>
      </root>
    </mxGraphModel>
  </diagram>
</mxfile>
